# xmcd
#
# Track frame offsets:
#	150
#	19345
#	87170
#
# Disc length: 1558 seconds
#
# Revision: 0
# Processed by: cddbd v1.5.2PL0 Copyright (c) Steve Scherf et al.
# Submitted via: EasyCDDAExtractor 16.0.9.1
#
DISCID=1a061403
DTITLE=Technotronic - Runaway Blues
DYEAR=2001
DGENRE=Deep House
TTITLE0=Runaway Blues (Radio Edit)
TTITLE1=Runaway Blues (Full Piano Version)
TTITLE2=Runaway Blues (Organ Version)
EXTD=
EXTT0=
EXTT1=
EXTT2=
PLAYORDER=
